<svg width="39" height="38" viewBox="0 0 39 38" fill="none" xmlns="http://www.w3.org/2000/svg">
<g clip-path="url(#clip0_271_312)">
<path d="M20.9174 24.046L21.9299 27.0966" stroke="#367EF7" stroke-linecap="round" stroke-linejoin="round"/>
<path d="M21.2677 14.8984C20.7615 13.3731 19.2301 13.3169 17.5421 13.8772C15.8541 14.4375 14.4914 14.8898 15.1665 16.9235C16.1791 19.9742 22.2803 17.949 23.2929 20.9996C23.968 23.0334 22.6053 23.4857 20.9173 24.046C19.2293 24.6063 17.6102 24.2857 17.1917 23.0248" stroke="#367EF7" stroke-linecap="round" stroke-linejoin="round"/>
<path d="M17.5421 13.8772L16.5295 10.8266" stroke="#367EF7" stroke-linecap="round" stroke-linejoin="round"/>
<path d="M14.8418 5.74221C7.54099 8.16555 3.58698 16.0486 6.01032 23.3494C8.43366 30.6503 16.3167 34.6043 23.6175 32.181C30.9184 29.7576 34.8724 21.8746 32.4491 14.5737C30.0257 7.27288 22.1427 3.31887 14.8418 5.74221Z" stroke="#367EF7" stroke-linecap="round" stroke-linejoin="round"/>
</g>
<g clip-path="url(#clip1_271_312)">
<path d="M20.8498 23.8426L21.8219 26.7712" stroke="#367EF7" stroke-linecap="round" stroke-linejoin="round"/>
<path d="M21.1862 15.0609C20.7002 13.5966 19.2301 13.5427 17.6096 14.0806C15.9891 14.6185 14.681 15.0527 15.329 17.0051C16.3011 19.9337 22.1583 17.9895 23.1304 20.9181C23.7784 22.8705 22.4703 23.3047 20.8498 23.8426C19.2293 24.3805 17.675 24.0728 17.2732 22.8623" stroke="#367EF7" stroke-linecap="round" stroke-linejoin="round"/>
<path d="M17.6096 14.0806L16.6375 11.152" stroke="#367EF7" stroke-linecap="round" stroke-linejoin="round"/>
<path d="M15.0174 6.27101C8.00854 8.59742 4.21269 16.1651 6.5391 23.1739C8.8655 30.1828 16.4332 33.9786 23.442 31.6522C30.4509 29.3258 34.2467 21.7581 31.9203 14.7493C29.5939 7.74045 22.0262 3.9446 15.0174 6.27101Z" stroke="#367EF7" stroke-linecap="round" stroke-linejoin="round"/>
</g>
<defs>
<clipPath id="clip0_271_312">
<rect width="30" height="30" fill="white" transform="translate(38.1913 28.4725) rotate(161.638)"/>
</clipPath>
<clipPath id="clip1_271_312">
<rect width="28.8" height="28.8" fill="white" transform="translate(37.4329 28.092) rotate(161.638)"/>
</clipPath>
</defs>
</svg>
